<?xml version="1.0" encoding="utf-8"?>
<!-- Generator: Adobe Illustrator 24.3.0, SVG Export Plug-In . SVG Version: 6.00 Build 0)  -->
<svg version="1.1" id="img" xmlns="http://www.w3.org/2000/svg" xmlns:xlink="http://www.w3.org/1999/xlink" x="0px" y="0px"
	 viewBox="0 0 281 129" style="enable-background:new 0 0 281 129;" xml:space="preserve">
<style type="text/css">
	.st0{fill:#262626;}
</style>
<path id="_x30_4" class="st0" d="M263.5,71.4V54.6c0-0.6-0.5-1.1-1.1-1.1h-36.3c-0.6,0-1.1,0.5-1.1,1.1v16.9c0,0.6-0.5,1.1-1.1,1.1
	h-13.8c-0.8,0-1.3-0.9-0.9-1.6l44-66.2c0.5-0.7,0-1.6-0.9-1.6L213,3.5c-0.3,0-0.7,0.2-0.8,0.4l-51.5,73.7c-0.1,0.1-0.2,0.3-0.2,0.5
	v26.4h-9.4c-0.3,0-0.6-0.3-0.6-0.6l0-19.1c-0.1,0,0,0-0.1,0c-2.3,6.8-6.1,11.2-11.9,11.2C128,96,124,81.9,124,64.5S127,33,138.5,33
	S153,47.1,153,64.5c0,3.5-0.2,6.9-0.5,10.1c0,0.1,0.2,0.2,0.2,0.1l32.4-46.3c0.4-0.6,0.5-1.4,0.1-2C176.5,11,161.3,1,138.5,1
	C101,1,83,29.4,83,64.5s18,63.5,55.5,63.5c21.3,0,36.3-9.2,45.3-23.5h38.9c0.6,0,1.1,0.5,1.1,1.1v18.9c0,0.6,0.5,1.1,1.1,1.1h37.7
	c0.6,0,1.1-0.5,1.1-1.1v-18.9c0-0.6,0.5-1.1,1.1-1.1h14.3c0.6,0,1.1-0.5,1.1-1.1V73.6c0-0.6-0.5-1.1-1.1-1.1h-14.4
	C264,72.5,263.5,72,263.5,71.4z"/>
<path id="_x34__1_" class="st0" d="M73,64.5c0-3.4,0.2-6.8,0.5-10.1c0.1-0.5-0.3-0.9-0.8-0.9h-7.6v18c0,0.5-0.4,1-1,1h-14
	c-0.8,0-1.2-0.9-0.8-1.5L93.4,4.5c0.4-0.7,0-1.5-0.8-1.5L53,3.5c-0.3,0-0.6,0.2-0.8,0.4L0.7,77.6c-0.1,0.2-0.2,0.4-0.2,0.6v25.4
	c0,0.5,0.4,1,1,1h61.3c0.5,0,1,0.4,1,1v19.1c0,0.5,0.4,1,1,1h37.9c0.5,0,1-0.4,1-1v-1.2c0-0.3-0.2-0.6-0.5-0.8
	C82.8,112.7,73,90.4,73,64.5z"/>
</svg>
