<?xml version="1.0" encoding="utf-8"?>
<!-- Generator: Adobe Illustrator 24.3.0, SVG Export Plug-In . SVG Version: 6.00 Build 0)  -->
<svg version="1.1" id="social" xmlns="http://www.w3.org/2000/svg"
    xmlns:xlink="http://www.w3.org/1999/xlink" x="0px" y="0px"
    viewBox="0 0 30 30" style="enable-background:new 0 0 30 30;" xml:space="preserve">
<style type="text/css">
	.st0{fill:#36639E;}
</style>
<g id="in">
	<path class="st0" d="M19.78,11.41c-2.83,0-3.76,1.91-3.76,1.91v-1.11c0-0.35-0.29-0.64-0.64-0.64h-2.92
		c-0.35,0-0.64,0.29-0.64,0.64v12.16c0,0.35,0.29,0.64,0.64,0.64h2.92c0.35,0,0.64-0.29,0.64-0.64V17.9c0,0,0.13-2.85,2.44-2.85
		s2.18,3.02,2.18,3.02v6.31c0,0.35,0.29,0.64,0.64,0.64h3.01c0.35,0,0.64-0.29,0.64-0.64v-6.31C24.94,12.36,22.61,11.41,19.78,11.41
		z"/>
	<path class="st0" d="M9.4,25.01H6.16c-0.27,0-0.48-0.22-0.48-0.48V12.05c0-0.27,0.22-0.48,0.48-0.48H9.4
		c0.27,0,0.48,0.22,0.48,0.48v12.49C9.88,24.8,9.66,25.01,9.4,25.01z"/>
	<circle class="st0" cx="7.76" cy="7.72" r="2.74"/>
</g>
</svg>
