<?xml version="1.0" encoding="utf-8"?>
<!-- Generator: Adobe Illustrator 24.3.0, SVG Export Plug-In . SVG Version: 6.00 Build 0)  -->
<svg version="1.1" id="social" xmlns="http://www.w3.org/2000/svg"
    xmlns:xlink="http://www.w3.org/1999/xlink" x="0px" y="0px"
    viewBox="0 0 30 30" style="enable-background:new 0 0 30 30;" xml:space="preserve">
<style type="text/css">
	.st0{fill:#36639E;}
</style>
<path class="st0" d="M19.3,3.9h-8.4C7.1,3.9,4,7,4,10.9v8.4c0,3.8,3.1,6.9,6.9,6.9h8.4c3.8,0,6.9-3.1,6.9-6.9v-8.4
	C26.3,7,23.2,3.9,19.3,3.9z M23.4,19.2c0,2.3-1.9,4.2-4.2,4.2h-8.3c-2.3,0-4.2-1.9-4.2-4.2v-8.3c0-2.3,1.9-4.2,4.2-4.2h8.3
	c2.3,0,4.2,1.9,4.2,4.2V19.2z"/>
<circle class="st0" cx="20.9" cy="9.3" r="1.1"/>
<path class="st0" d="M15.1,9.3c-3.3,0-5.8,2.6-5.8,5.8s2.6,5.8,5.8,5.8s5.8-2.6,5.8-5.8S18.3,9.3,15.1,9.3z M15.1,18.4
	c-1.8,0-3.3-1.5-3.3-3.3s1.5-3.3,3.3-3.3c1.8,0,3.3,1.5,3.3,3.3S16.9,18.4,15.1,18.4z"/>
</svg>
