<?xml version="1.0" encoding="utf-8"?>
<!-- Generator: Adobe Illustrator 28.2.0, SVG Export Plug-In . SVG Version: 6.00 Build 0)  -->
<svg version="1.1" id="Camada_2" xmlns="http://www.w3.org/2000/svg" xmlns:xlink="http://www.w3.org/1999/xlink" x="0px" y="0px"
	 viewBox="0 0 281 129" style="enable-background:new 0 0 281 129;" xml:space="preserve">
<style type="text/css">
	.st0{fill:#262626;}
</style>
<path class="st0" d="M227.2,0.8h-2.9c-40.2,0-53.8,36.1-53.8,57.6v11.9c0,31.9,22.5,57.6,53.8,57.6h2.9c30.5,0,53.8-24.2,53.8-57.6
	V58.3C281,27,260.4,0.8,227.2,0.8z M240.2,69.1c0,14.7-5.6,26.7-14.1,26.7h-0.8c-8.4,0-14.1-11.9-14.1-26.7v-9.6
	c0-14.7,4.6-26.7,14.1-26.7h0.8c9.5,0,14.1,11.9,14.1,26.7V69.1z"/>
<path class="st0" d="M160.4,70.3V58.4c0-12.6,4.7-30.3,16.8-42.8C168,6.5,155.3,0.9,139.9,0.9H137c-40.2,0-53.8,36.1-53.8,57.6v11.9
	c0,31.9,22.5,57.6,53.8,57.6h2.9c14.7,0,27.7-5.6,37.2-15.1C166.7,102.2,160.4,87.1,160.4,70.3z M153,69.1
	c0,14.7-5.6,26.7-14.1,26.7h-0.8c-8.4,0-14.1-11.9-14.1-26.7v-9.6c0-14.7,4.6-26.7,14.1-26.7h0.8c9.5,0,14.1,11.9,14.1,26.7V69.1z"
	/>
<path class="st0" d="M73.2,58.6c0-5.1,0.8-10.9,2.5-17c-3.4-1.3-7.3-2-12-2c-7.7,0-15.4,2.1-20.7,6.4c0.4-6.6,1.1-12.7,1.3-16.7
	h36.2h3.2L88.2,1H7.8C6.8,16.3,3.3,61.3,2.3,73.2l36.1,1.9c0.9-7.8,2.8-10,6.6-10c4.7,0,6.4,3.6,6.4,19.2c0,16.1-1.9,18.8-6.2,18.8
	s-6-3.8-6-14H1c0.2,16.1,5.8,38.3,44.7,38.3c21,0,34.4-5.3,41.3-17.6c-8.7-10.3-13.8-24-13.8-39.2V58.6z"/>
</svg>
