<?xml version="1.0" encoding="utf-8"?>
<!-- Generator: Adobe Illustrator 24.3.0, SVG Export Plug-In . SVG Version: 6.00 Build 0)  -->
<svg version="1.1" id="social" xmlns="http://www.w3.org/2000/svg"
    xmlns:xlink="http://www.w3.org/1999/xlink" x="0px" y="0px"
    viewBox="0 0 30 30" style="enable-background:new 0 0 30 30;" xml:space="preserve">
<style type="text/css">
	.st0{fill:#36639E;}
</style>
<g id="fb">
	<path class="st0" d="M21.25,3.18v2.86c0,0.39-0.32,0.71-0.71,0.71h-1.97c-1.06,0-1.93,0.86-1.93,1.93v3.18h4.08
		c0.38,0,0.68,0.33,0.64,0.71l-0.39,3.61c-0.03,0.3-0.28,0.52-0.58,0.52h-3.75v10.33c0,0.27-0.22,0.5-0.5,0.5H12.5
		c-0.27,0-0.5-0.22-0.5-0.5V16.7H9.32c-0.4,0-0.73-0.33-0.73-0.73v-3.38c0-0.4,0.33-0.73,0.73-0.73h2.68V7.85
		c0-2.97,2.41-5.38,5.38-5.38h3.15C20.93,2.47,21.25,2.79,21.25,3.18z"/>
</g>
</svg>
