<?xml version="1.0" encoding="utf-8"?>
<!-- Generator: Adobe Illustrator 28.2.0, SVG Export Plug-In . SVG Version: 6.00 Build 0)  -->
<svg version="1.1" id="logo" xmlns="http://www.w3.org/2000/svg" xmlns:xlink="http://www.w3.org/1999/xlink" x="0px" y="0px"
	 viewBox="0 0 455.9 349" style="enable-background:new 0 0 455.9 349;" xml:space="preserve">
<style type="text/css">
	.st0{fill-rule:evenodd;clip-rule:evenodd;fill:url(#SVGID_1_);}
	.st1{fill-rule:evenodd;clip-rule:evenodd;fill:url(#SVGID_00000155144493234139063510000014472486388734970286_);}
	.st2{fill-rule:evenodd;clip-rule:evenodd;fill:#FFFFFF;}
</style>
<g id="edit_00000157298333456110612750000004558587558196976305_">
	
		<linearGradient id="SVGID_1_" gradientUnits="userSpaceOnUse" x1="193.455" y1="667.5089" x2="347.0702" y2="667.505" gradientTransform="matrix(1 0 0 1 0 -492.2569)">
		<stop  offset="0" style="stop-color:#396FB5"/>
		<stop  offset="1" style="stop-color:#3069B3"/>
	</linearGradient>
	<path class="st0" d="M219.1,301.8L219.1,301.8h-36.3c-2.6,0-3.6-2-2.4-4.7L313.6,54.8c1.7-3.6,5.2-6.1,8.9-6.1h30.4
		c3.6,0,7.1,6.2,5.4,9.5L227.8,295.5C226,299,222.7,301.8,219.1,301.8"/>
	
		<linearGradient id="SVGID_00000105395676992942947430000000570244747856844680_" gradientUnits="userSpaceOnUse" x1="195.1627" y1="175.2706" x2="246.3746" y2="175.2695" gradientTransform="matrix(1 0 0 -1 0 349.89)">
		<stop  offset="0" style="stop-color:#839FC5"/>
		<stop  offset="1" style="stop-color:#839FC5"/>
	</linearGradient>
	<path style="fill-rule:evenodd;clip-rule:evenodd;fill:url(#SVGID_00000105395676992942947430000000570244747856844680_);" d="
		M171.5,301.3l-31.8-0.7c-1.8-0.1-2.4-2.4-1.6-4L267.4,50.3c0.8-1.5,2.3-2.4,4-2.4H303c3.5,0,5.7,3.7,4,6.7L177.1,297.9
		C176,300.4,173.3,301.3,171.5,301.3z"/>
</g>
<path id="title" class="st2" d="M412,85.7l-120.1,211c-1.8,3.2-5,5-8.7,5h-13.9c-3.7,0-6.9-1.9-8.7-5.1L142.2,86.4v207
	c0,5-3.3,8.5-8.4,8.5h-24.6c-5.1,0-8.4-3.4-8.4-8.5V57.5c0-5.1,3.2-8.8,8.4-8.8h53.2c3.7,0,6.9,1.9,8.7,5.1l105.3,188.7L385.2,53.7
	c1.8-3.2,5-5,8.6-5h50.8c5.1,0,7.6,4.1,7.6,8.8v235.8c0,4.7-2.7,8.5-7.6,8.5h-24.2c-5.1,0-8.4-3.4-8.4-8.5V85.7L412,85.7z"/>
</svg>
